<!-- meow :) -->
<svg version="1.1" xmlns="http://www.w3.org/2000/svg" width="48" height="48" viewBox="0 0 48 48">
	<path d="M7,43c-1.10457,0 -2,-0.89543 -2,-2v-34c0,-1.10457 0.89543,-2 2,-2h34c1.10457,0 2,0.89543 2,2v34c0,1.10457 -0.89543,2 -2,2z" fill="#303f9f" stroke-width="0"></path>
	<text x="9" y="25" font-size="20" fill="#fff" font-family="sans-serif">B</text> 
	<text x="25" y="25" font-size="20" fill="#fff" font-family="sans-serif">B</text> 

	<path d="M9 42 a3 3 0 0 1 6 0" fill="#2196f3" />
	<rect x="9" y="42" width="6" height="1" fill="#2196f3" />

	<circle cx="18" cy="33" r="3" fill="#2196f3" />
	<rect x="15" y="33" width="6" height="10" fill="#2196f3" />

	<circle cx="24" cy="32" r="3" fill="#2196f3" />
	<rect x="21" y="32" width="6" height="11" fill="#2196f3" />

	<circle cx="30" cy="33" r="3" fill="#2196f3" />
	<rect x="27" y="33" width="6" height="10" fill="#2196f3" />

	<circle cx="36" cy="35" r="3" fill="#2196f3" />
	<rect x="33" y="35" width="6" height="8" fill="#2196f3" />

</svg>